<svg width="8" height="8" viewBox="0 0 8 8" fill="none" xmlns="http://www.w3.org/2000/svg">
<path d="M7.74277 3.61415H4.51447C4.44373 3.61415 4.38585 3.55627 4.38585 3.48553V0.257235C4.38585 0.115756 4.2701 0 4.12862 0H3.87138C3.7299 0 3.61415 0.115756 3.61415 0.257235V3.48553C3.61415 3.55627 3.55627 3.61415 3.48553 3.61415H0.257235C0.115756 3.61415 0 3.7299 0 3.87138V4.12862C0 4.2701 0.115756 4.38585 0.257235 4.38585H3.48553C3.55627 4.38585 3.61415 4.44373 3.61415 4.51447V7.74277C3.61415 7.88424 3.7299 8 3.87138 8H4.12862C4.2701 8 4.38585 7.88424 4.38585 7.74277V4.51447C4.38585 4.44373 4.44373 4.38585 4.51447 4.38585H7.74277C7.88424 4.38585 8 4.2701 8 4.12862V3.87138C8 3.7299 7.88424 3.61415 7.74277 3.61415Z" fill="#0A0A0A"/>
</svg>
